<?xml version="1.0" encoding="UTF-8"?> <svg xmlns="http://www.w3.org/2000/svg" id="Layer_1" data-name="Layer 1" viewBox="0 0 212.46 45.53"><defs><style>.cls-1{fill:#2aa1da;}.cls-2{fill:#8bc5a3;}.cls-3{fill:#42af8c;}.cls-4{fill:#2f4049;}</style></defs><title>Thrive Naturally Wellness - logo - landscape - color</title><path class="cls-1" d="M29.18,15.05a3.35,3.35,0,0,1-1.89.12,2.46,2.46,0,0,0,3.27.92c-.13.17-1.18,2.31.39,3.43A9.13,9.13,0,0,1,32.41,17c-.13,1.18-.31,3.06.82,3.67.09-1.79,2.14-5.13,2.14-5.13,1.53-1.86.07-4.82-2.34-3.5a7.07,7.07,0,0,1-4.74,1c-1.52-.14.22.9,1,1.58C29.37,14.65,29.53,14.88,29.18,15.05Z"></path><path class="cls-2" d="M40.42,16.9a6.71,6.71,0,0,0-2.52-3.8,4.08,4.08,0,0,0-2.1-.7,2.16,2.16,0,0,1,.37.91,3.71,3.71,0,0,1,1,.68,5.75,5.75,0,0,1,1.5,3.29,7.82,7.82,0,0,1-.33,3.63A8.3,8.3,0,0,1,36.51,24,13.28,13.28,0,0,1,30,27.56,33.75,33.75,0,0,1,22,28.4,17.45,17.45,0,0,1,18,28a12,12,0,0,1-1.93-.61,12.06,12.06,0,0,1-1.77-.95,8.06,8.06,0,0,1-2.61-3,9.65,9.65,0,0,1-1-3.72,13.7,13.7,0,0,1,1.51-7.35,5.77,5.77,0,0,1,2.51-2.5,3,3,0,0,1,1.72-.15l.16.05A4.3,4.3,0,0,1,17,9.1L16.76,9a3.5,3.5,0,0,0-2.36-.29,5,5,0,0,0-2.15,1,7.61,7.61,0,0,0-1.56,1.7,11.3,11.3,0,0,0-1.77,4.13,10.41,10.41,0,0,0,0,4.48,10.56,10.56,0,0,0,1.85,4,13,13,0,0,0,3.14,3,17,17,0,0,0,3.82,1.89A22.79,22.79,0,0,0,21.9,30a23.52,23.52,0,0,0,4.27.29,24.36,24.36,0,0,0,4.32-.45,16.87,16.87,0,0,0,4.22-1.4,11.54,11.54,0,0,0,3.64-2.79A9.58,9.58,0,0,0,40.42,16.9Z"></path><path class="cls-3" d="M19.32,8.7a5.49,5.49,0,0,0-1.57.06s3,2.41,3,4.26a14.12,14.12,0,0,0-3.47-3.75,4.62,4.62,0,0,0-.38,4.51c1.18,2.32,4.11,1.55,4.65,3.81,1.93-2.69,1.82-5.19,1.12-6.73a3.5,3.5,0,0,0-.92-1.25A4.58,4.58,0,0,0,19.32,8.7Z"></path><path class="cls-4" d="M60.67,18.17a29.6,29.6,0,0,1,1.68-4.72,24.59,24.59,0,0,1-2.27-1c-2.42-1.12-3.78-1.79-5.32-1.79-2.35,0-4,1.3-4,4.21,0,2.34,1.37,3.36,3,3.36s2.48-.91,2.48-1.82c0-.6-.45-.53-.45-1a.53.53,0,0,1,.49-.52c.38,0,.66.28.66.9,0,1.41-1,3-3.46,3a4,4,0,0,1-4.13-4.2c0-2.52,2.31-4.44,5.7-4.44,1.65,0,3.15.55,5.64,1.4.94.31,1.71.59,2.41.8.6-.84.95-1,1.26-1s.42.07.42.18-.07.14-.21.35l-.52.73a11.75,11.75,0,0,0,3.39.49c1.72,0,2.17-1.12,2.17-1.72,0-.24-.14-.34-.14-.55a.41.41,0,0,1,.81.06c0,1-.7,3.51-4.13,3.51a9,9,0,0,1-2.77-.53c-2.62,5.88-2.34,16.59-10.57,16.59-3.11,0-5.25-1.92-5.25-4.44a4.09,4.09,0,0,1,4.13-4.17c2,0,2.77,1.12,2.77,2.07a.58.58,0,0,1-.6.66.42.42,0,0,1-.42-.38c0-.32.07-.35.07-.63a1.51,1.51,0,0,0-1.64-1.3c-1.47,0-2.94,1.23-2.94,3.5,0,2.63,1.36,4.13,3.57,4.13C56.26,29.86,58.43,26,60.67,18.17Z"></path><path class="cls-4" d="M67.05,21.67l.17-.56c1.75-5.53,4.2-8.4,5.85-8.4.77,0,1.15.38,1.15,1.23,0,2.24-2.52,5.32-6.09,8.4L67,26.22c-.14.46.07.42.35.14,2.24-2.62,4.17-4.13,5-4.13.53,0,.88.39.88,1.12s-.84,3.26-.84,4.55c0,.46.14.56.45.56.81,0,2.24-1.54,3.36-2.73.14-.17.21-.21.32-.21a.17.17,0,0,1,.17.18.29.29,0,0,1-.1.24c-1.89,2.1-3.43,3.61-4.59,3.61-.66,0-1.19-.42-1.19-1.47,0-1.33.77-3.71.77-4.41,0-.25-.07-.35-.17-.35-.81,0-4,3.53-4.87,5l-.7,1.22a.9.9,0,0,1-.8.46c-.28,0-.49-.14-.49-.42A6.47,6.47,0,0,1,65,28l1.61-5c-.73.91-1.82,2.21-2.55,2.94-.14.18-.21.21-.32.21a.17.17,0,0,1-.18-.17.3.3,0,0,1,.11-.25C64.77,24.47,66,23.07,67.05,21.67Zm1.33-.24c3.18-2.59,5.21-5.81,5.21-7.18,0-.46-.14-.66-.45-.66-1,0-3,2.06-4.69,7.66Z"></path><path class="cls-4" d="M79.54,20.55a.65.65,0,0,1,.53.63c0,.56-.6.74-.6,1.23s.35.49,1,.7,1,.42,1,1c0,.77-1,1.92-1,3.57,0,.56.28.84.7.84.84,0,2.17-1.3,3.5-2.77.17-.17.24-.21.31-.21a.17.17,0,0,1,.18.18.27.27,0,0,1-.11.24c-1.78,2-3.36,3.33-4.51,3.33-.88,0-1.58-.46-1.58-1.72s.84-2.73.84-3.32c0-.28-.17-.46-.49-.63a2.3,2.3,0,0,1-.35-.25c-.59.7-1.68,2-2.27,2.59-.14.18-.21.21-.32.21a.16.16,0,0,1-.17-.17.31.31,0,0,1,.1-.25c.77-.84,1.61-1.78,2.38-2.8a1.22,1.22,0,0,1-.1-.56C78.53,21.18,79.19,20.55,79.54,20.55Z"></path><path class="cls-4" d="M87,28.74c.77,0,2.66-1.68,3.88-3,.18-.17.25-.21.32-.21a.2.2,0,0,1,.21.18c0,.07,0,.14-.14.24-1.89,2.14-3.64,3.5-4.94,3.5a1,1,0,0,1-1.12-1.15A9.46,9.46,0,0,1,86,25.21c.14-.28.07-.42-.18-.14s-.59.63-.84.87-.21.21-.31.21a.17.17,0,0,1-.18-.17.3.3,0,0,1,.11-.25,31.06,31.06,0,0,0,2.9-3.64.51.51,0,0,1,.42-.28c.42,0,.7.63.7,1.05A3.61,3.61,0,0,1,88.19,24a11.41,11.41,0,0,0-1.54,4.2C86.65,28.64,86.79,28.74,87,28.74Zm3.25-10.85c-.1,0-.17-.07-.17-.24s.17-.67.17-1-.07-.32-.07-.46c0-.49.49-.67.63-.87s.28-.46.56-.46.32.11.32.39C91.69,16.35,90.78,17.89,90.25,17.89Z"></path><path class="cls-4" d="M93.05,28.15a23.15,23.15,0,0,1,1-4.76c.07-.39-.07-.46-.35-.14-.63.7-1.79,2-2.45,2.69-.14.18-.21.21-.32.21a.16.16,0,0,1-.17-.17.31.31,0,0,1,.1-.25c.81-.87,2-2.24,2.66-3.08s1.12-1.08,1.47-1.08a.7.7,0,0,1,.77.77c0,1.08-1.08,4.09-1.08,5.7,0,.39.17.46.35.46,1.15,0,3.46-2.66,3.46-4,0-.91-.42-1.12-.42-1.75,0-.87.49-1.26,1.12-1.26.39,0,.67.28.67.84a6,6,0,0,1-.59,2.35c.34,1.22.94,1.71,1.64,1.71a1.61,1.61,0,0,0,1.23-.63c.13-.17.21-.21.31-.21s.21.07.21.18,0,.1-.14.24a2.11,2.11,0,0,1-1.65.84A2,2,0,0,1,99,25.28c-1.26,2.31-3.57,4.34-4.9,4.34C93.65,29.62,93.05,29.27,93.05,28.15Z"></path><path class="cls-4" d="M106.64,27.76a.49.49,0,0,1,.38-.28.26.26,0,0,1,.28.28c0,.21-.21.46-.91.91a4.73,4.73,0,0,1-2.41.84c-1.51,0-2.14-.8-2.14-2.2,0-2.14,2.21-5.43,4.48-5.43a1.17,1.17,0,0,1,1.16,1.19c0,1.47-2,3.26-4,3.47a3.79,3.79,0,0,0-.14,1.05c0,.84.35,1.22,1.09,1.22A3.2,3.2,0,0,0,106.64,27.76Zm-.18-5.11c-.8,0-2.17,1.54-2.8,3.22A3.3,3.3,0,0,0,106.78,23C106.78,22.76,106.67,22.65,106.46,22.65Z"></path><path class="cls-4" d="M129.28,18.38c-2.38,3.29-5,7-5.84,9.1l-.35.84c-.56,1.37-.42,1.72-.91,1.72a1.16,1.16,0,0,1-1-1.05,7.32,7.32,0,0,1,.53-1.93L123,23.6c1.26-3.64,2.17-6.69,2.17-9,0-2.66-1.3-4.05-3.75-4.05a6.66,6.66,0,0,0-6.51,6.65c0,2.24,1.3,3.46,3.19,3.46a3.28,3.28,0,0,0,3.5-3.18c0-1-.46-1.47-.77-1.47s-.35.1-.6.1-.42-.1-.42-.35.28-.59.77-.59c1,0,1.61.87,1.61,2.06a4,4,0,0,1-4.23,4,4.18,4.18,0,0,1-4.24-4.52c0-3.53,3.08-6.68,7.7-6.68,3.71,0,5.25,2.2,5.25,4.58,0,2.87-.8,5.57-2.1,9.14-.07.21.11.28.25.07,5.42-8.3,8.33-11.76,10.74-11.76.84,0,1.75.59,1.75,2.2,0,3.26-4.37,10.61-4.37,15.79,0,2.41,1.08,3.15,2.48,3.15s2-.53,2.28-.95.28-.45.45-.45.32.21.32.42c0,.66-1.51,1.68-3.33,1.68s-3.85-1.16-3.85-4.69c0-4.87,4.38-12.67,4.38-15.4,0-.57-.25-.84-.67-.84C133.83,13,132.26,14.32,129.28,18.38Z"></path><path class="cls-4" d="M142.24,26.08c-1.72,1.68-3.5,3.33-4.48,3.33-.77,0-1-.63-1-1.33,0-3,3.39-6.2,6.3-6.2,1.61,0,2.52.88,2.52,1.86,0,.38-.18.52-.42.52a.32.32,0,0,1-.35-.31c0-.28.21-.39.21-.56,0-.39-.53-.81-1.33-.81-2.8,0-5.5,3.75-5.5,5.43,0,.28.11.42.32.42.66,0,2.41-1.54,3.57-2.77a2.52,2.52,0,0,0,.45-.73,2.41,2.41,0,0,1,1.19-.81c.32,0,.63.53.63.88,0,.7-.94,2.76-.94,3.36,0,.28.14.38.38.38.77,0,2.63-1.64,3.85-3,.18-.17.25-.21.32-.21a.2.2,0,0,1,.21.18c0,.07,0,.14-.14.24-1.89,2.1-3.61,3.5-4.87,3.5-.66,0-1.19-.28-1.19-1.08a9.37,9.37,0,0,1,.53-2.21C142.52,26,142.38,25.94,142.24,26.08Z"></path><path class="cls-4" d="M156.76,19.54a1.19,1.19,0,0,1-.7,1c-.07,0-.07-.07,0-.14s.07-.24.07-.31c0-.35-.39-.6-1.23-.6a18.69,18.69,0,0,0-2.38.28c-.52.11-.91.14-1.29.21-1.65,3.5-3,7.6-3,9.84,0,1.68.42,2.2.8,2.48a1.24,1.24,0,0,0,.84.21.29.29,0,0,1,.32.32.31.31,0,0,1-.32.31c-.66,0-2.69-.87-2.69-4.51,0-2.07,1.15-5.53,2.45-8.37a5,5,0,0,1-.74,0,.64.64,0,0,1-.63-.39s.07-.1.39-.1a12.48,12.48,0,0,0,1.26-.14l.1-.25a14.6,14.6,0,0,1,2.77-4c.24-.25.31-.28.77-.28.17,0,.21.07.21.17a.26.26,0,0,1-.07.21,33.46,33.46,0,0,0-2.21,3.92c.42-.07.77-.1,1.09-.17a16.51,16.51,0,0,1,3-.39C156.13,18.87,156.76,19.05,156.76,19.54Z"></path><path class="cls-4" d="M161.14,22.51c.21-.28.38-.38.59-.38.39,0,.63.52.63.91a2.92,2.92,0,0,1-.52,1.22,8.06,8.06,0,0,0-1,3.33c0,.66.21.8.49.8.67,0,2.28-1.47,3.4-2.66.14-.17.21-.21.31-.21a.17.17,0,0,1,.18.18.27.27,0,0,1-.11.24c-1.78,2-3.36,3.26-4.51,3.26-.84,0-1.44-.42-1.44-1.58a6.84,6.84,0,0,1,.32-1.68c.07-.31,0-.38-.28-.14-1,.91-1.86,1.75-2.63,2.35-1.33,1.12-1.92,1.5-2.48,1.5s-.84-.24-.84-.91a15.4,15.4,0,0,1,1.36-4.37c.14-.32,0-.49-.24-.25-.49.53-1.16,1.33-1.65,1.82-.14.18-.21.21-.31.21a.17.17,0,0,1-.18-.17.3.3,0,0,1,.11-.25,21.36,21.36,0,0,0,2.31-2.87,3.72,3.72,0,0,1,2-1.19.48.48,0,0,1,.45.46,2.69,2.69,0,0,1-.31,1,23.86,23.86,0,0,0-1.68,4.79c0,.25.1.32.28.32.38,0,1.71-1,3.15-2.49A29,29,0,0,0,161.14,22.51Z"></path><path class="cls-4" d="M168,20.55a.66.66,0,0,1,.53.63c0,.56-.6.74-.6,1.23s.35.49,1,.7,1,.42,1,1c0,.77-1,1.92-1,3.57,0,.56.29.84.71.84.84,0,2.17-1.3,3.5-2.77.17-.17.24-.21.31-.21a.17.17,0,0,1,.18.18.27.27,0,0,1-.11.24c-1.78,2-3.36,3.33-4.51,3.33-.88,0-1.58-.46-1.58-1.72s.84-2.73.84-3.32c0-.28-.17-.46-.49-.63a2.3,2.3,0,0,1-.35-.25c-.59.7-1.68,2-2.28,2.59-.14.18-.21.21-.31.21a.17.17,0,0,1-.18-.17.3.3,0,0,1,.11-.25c.77-.84,1.61-1.78,2.38-2.8a1.22,1.22,0,0,1-.1-.56C167,21.18,167.65,20.55,168,20.55Z"></path><path class="cls-4" d="M177.94,26.08c-1.71,1.68-3.5,3.33-4.48,3.33-.77,0-1.05-.63-1.05-1.33,0-3,3.4-6.2,6.3-6.2,1.61,0,2.52.88,2.52,1.86,0,.38-.17.52-.42.52a.32.32,0,0,1-.35-.31c0-.28.21-.39.21-.56,0-.39-.52-.81-1.33-.81-2.8,0-5.49,3.75-5.49,5.43,0,.28.1.42.31.42.67,0,2.42-1.54,3.57-2.77a2.86,2.86,0,0,0,.46-.73,2.37,2.37,0,0,1,1.19-.81c.31,0,.63.53.63.88,0,.7-.95,2.76-.95,3.36,0,.28.14.38.39.38.77,0,2.62-1.64,3.85-3,.17-.17.24-.21.31-.21a.19.19,0,0,1,.21.18c0,.07,0,.14-.14.24-1.89,2.1-3.6,3.5-4.86,3.5-.67,0-1.19-.28-1.19-1.08a9.87,9.87,0,0,1,.52-2.21C178.22,26,178.08,25.94,177.94,26.08Z"></path><path class="cls-4" d="M193.83,30.81c0,.1-.07.17-.28.17-1.64,0-2.9-1.15-2.9-4.62,0-.38,0-.8,0-1.26-1.57,3-3,4.45-4.13,4.45-.8,0-1.61-.84-1.61-3.19a19.47,19.47,0,0,1,.11-2,19.68,19.68,0,0,1-1.37,1.54c-.14.18-.21.21-.31.21a.17.17,0,0,1-.18-.17.3.3,0,0,1,.11-.25c.63-.66,1.26-1.43,1.89-2.17.87-5.25,3.81-11.2,6-11.2.63,0,1,.52,1,1.61,0,2.14-1.68,5.46-5.56,9.17a18.1,18.1,0,0,0-.39,3.5c0,1.65.42,2.14.88,2.14.87,0,2.45-2.35,3.71-5,.84-5.15,3.78-11,5.91-11,.63,0,1,.53,1,1.58,0,2.13-1.68,5.35-5.43,9a20.07,20.07,0,0,0-.45,3.92c0,2.9.63,3.39,1.71,3.46C193.8,30.7,193.83,30.74,193.83,30.81Zm-7-8.51c2.91-2.87,4.73-6.12,4.73-8.12,0-.56-.18-.77-.53-.77C189.91,13.41,187.81,17.93,186.83,22.3Zm5.67.28c2.84-2.87,4.66-6.09,4.66-8.08,0-.56-.21-.77-.56-.77C195.51,13.73,193.52,18.17,192.5,22.58Z"></path><path class="cls-4" d="M191.14,41.55a.34.34,0,0,1,.38-.35c.25,0,.32.07.39.28s.35.28.7.28c4.2,0,8.37-9.24,9.87-15.82.07-.35,0-.45-.28-.17a22.41,22.41,0,0,1-2.9,2.66c-1.09.84-1.72,1.19-2.21,1.19s-.8-.28-.8-1.05a14.65,14.65,0,0,1,1.43-4.13c.14-.35-.07-.53-.28-.28-.49.56-1.15,1.29-1.65,1.78-.13.18-.21.21-.31.21a.17.17,0,0,1-.18-.17.3.3,0,0,1,.11-.25c.88-1,2-2.17,2.66-3,.35-.46,1-1,1.19-1s.56.63.56,1.09c0,.21,0,.31-.35,1A19.6,19.6,0,0,0,198,27.9c0,.25.11.32.28.32.38,0,1.61-.81,3.26-2.52a10.66,10.66,0,0,0,2.2-3c.35-1,.6-1.26.81-1.26.38,0,.59.8.59,1.26,0,.7-.73,1-1.15,3-1.72,7.91-6.41,16.45-11.35,16.45C191.63,42.11,191.14,41.87,191.14,41.55Z"></path><path class="cls-4" d="M150.41,41.53l-1.53-4.7-1.55,4.7h-.57L145,36h.64l1.46,4.67L148.62,36h.51l1.55,4.67L152.13,36h.64L151,41.53Z"></path><path class="cls-4" d="M153.57,38.77a2.73,2.73,0,0,1,2.65-2.88,2.63,2.63,0,0,1,2.59,2.92V39h-4.6a2.15,2.15,0,0,0,2.15,2.19,2.4,2.4,0,0,0,1.8-.76l.31.39a2.87,2.87,0,0,1-2.15.88A2.71,2.71,0,0,1,153.57,38.77Zm2.63-2.37a2.08,2.08,0,0,0-2,2.1h4A2,2,0,0,0,156.2,36.4Z"></path><path class="cls-4" d="M160.33,41.53v-7.6h.59v7.6Z"></path><path class="cls-4" d="M162.77,41.53v-7.6h.59v7.6Z"></path><path class="cls-4" d="M168.91,41.53V37.8c0-1-.53-1.37-1.33-1.37a2.38,2.38,0,0,0-1.79.94v4.16h-.59V36h.59v.83a2.8,2.8,0,0,1,2-1c1.12,0,1.73.55,1.73,1.79v3.85Z"></path><path class="cls-4" d="M171,38.77a2.72,2.72,0,0,1,2.64-2.88,2.63,2.63,0,0,1,2.59,2.92V39h-4.59a2.14,2.14,0,0,0,2.15,2.19,2.43,2.43,0,0,0,1.8-.76l.3.39a2.85,2.85,0,0,1-2.15.88A2.7,2.7,0,0,1,171,38.77Zm2.63-2.37a2.06,2.06,0,0,0-2,2.1h4A2,2,0,0,0,173.67,36.4Z"></path><path class="cls-4" d="M177.32,40.79l.35-.44a2.27,2.27,0,0,0,1.78.81c.92,0,1.46-.48,1.46-1.11,0-1.51-3.47-.65-3.47-2.63,0-.84.72-1.53,2-1.53a2.54,2.54,0,0,1,2,.81l-.33.42a2,2,0,0,0-1.64-.73c-.85,0-1.36.44-1.36,1,0,1.38,3.45.54,3.45,2.66,0,.88-.68,1.61-2.05,1.61A2.64,2.64,0,0,1,177.32,40.79Z"></path><path class="cls-4" d="M182.54,40.79l.35-.44a2.3,2.3,0,0,0,1.78.81c.92,0,1.47-.48,1.47-1.11,0-1.51-3.47-.65-3.47-2.63,0-.84.71-1.53,2-1.53a2.54,2.54,0,0,1,2,.81l-.33.42a2,2,0,0,0-1.64-.73c-.85,0-1.36.44-1.36,1,0,1.38,3.46.54,3.46,2.66,0,.88-.68,1.61-2.06,1.61A2.65,2.65,0,0,1,182.54,40.79Z"></path></svg> 