<?xml version="1.0" encoding="UTF-8"?> <svg xmlns="http://www.w3.org/2000/svg" id="Layer_1" data-name="Layer 1" viewBox="0 0 72 72"><defs><style>.cls-1{fill:#2c3a47;}</style></defs><path class="cls-1" d="M44.69,27.49a6.61,6.61,0,0,1-3.68.24c2,3.66,6.05,2,6.35,1.79-.24.33-2.29,4.49.77,6.67,0,0,1.57-4,2.85-5-.27,2.29-.6,5.94,1.58,7.13.17-3.47,4.18-10,4.18-10,3-3.61.12-9.37-4.56-6.8A13.83,13.83,0,0,1,43,23.45c-3-.28.43,1.73,1.89,3.07C45.06,26.72,45.36,27.15,44.69,27.49Z"></path><path class="cls-1" d="M66.56,31.09a13,13,0,0,0-4.92-7.39,7.68,7.68,0,0,0-4.07-1.36,4.26,4.26,0,0,1,.71,1.77,6.82,6.82,0,0,1,2,1.33,11.07,11.07,0,0,1,2.93,6.38,15.46,15.46,0,0,1-.64,7.06,16.47,16.47,0,0,1-3.6,6,26,26,0,0,1-12.71,6.94,66,66,0,0,1-15.46,1.62,34.65,34.65,0,0,1-7.8-.78,24.75,24.75,0,0,1-3.75-1.19,23.78,23.78,0,0,1-3.44-1.86,15.69,15.69,0,0,1-5.09-5.75,18.8,18.8,0,0,1-1.9-7.25,26.65,26.65,0,0,1,2.94-14.28,11.09,11.09,0,0,1,4.88-4.87A5.72,5.72,0,0,1,20,17.18l.32.1A9.33,9.33,0,0,1,21,15.91c-.15-.09-.29-.19-.44-.27A7.53,7.53,0,0,0,18.31,15a7.33,7.33,0,0,0-2.38.1,9.82,9.82,0,0,0-4.17,2,14.85,14.85,0,0,0-3,3.29,22,22,0,0,0-3.43,8.05,20.42,20.42,0,0,0,0,8.7A20.81,20.81,0,0,0,8.92,45,25.25,25.25,0,0,0,15,50.75a33.87,33.87,0,0,0,7.43,3.69,44,44,0,0,0,8.08,2.07,45.31,45.31,0,0,0,8.31.57,47.88,47.88,0,0,0,8.39-.87,32.48,32.48,0,0,0,8.21-2.73,22.51,22.51,0,0,0,7.08-5.42A18.69,18.69,0,0,0,66.56,31.09Z"></path><path class="cls-1" d="M25.51,15.13a10.59,10.59,0,0,0-3.06.13s5.77,4.69,5.79,8.27a27.36,27.36,0,0,0-6.74-7.28s-3.05,4.26-.74,8.77,8,3,9,7.41c3.77-5.23,3.55-10.1,2.18-13.09a6.39,6.39,0,0,0-1.79-2.42A8.88,8.88,0,0,0,25.51,15.13Z"></path></svg> 